<svg width="48" height="34" viewBox="0 0 48 34" fill="none" xmlns="http://www.w3.org/2000/svg">
<g clip-path="url(#clip0_1_6558)">
<path d="M46.9399 5.30306C46.6646 4.27806 46.1275 3.34361 45.3822 2.59274C44.6369 1.84188 43.7094 1.3008 42.6919 1.0234C38.967 0 23.9757 0 23.9757 0C23.9757 0 8.98354 0.0309777 5.25866 1.05438C4.24119 1.3318 3.31362 1.8729 2.56831 2.6238C1.82299 3.3747 1.28595 4.30919 1.01066 5.33422C-0.116026 12.0016 -0.553089 22.1612 1.0416 28.5619C1.31692 29.5869 1.85397 30.5213 2.59928 31.2722C3.34459 32.0231 4.27215 32.5641 5.2896 32.8415C9.01447 33.8649 24.0062 33.8649 24.0062 33.8649C24.0062 33.8649 38.9978 33.8649 42.7225 32.8415C43.74 32.5642 44.6676 32.0231 45.4129 31.2722C46.1582 30.5214 46.6953 29.5869 46.9707 28.5619C48.159 21.885 48.5252 11.7319 46.9399 5.30324V5.30306Z" fill="#FF0000"/>
<path d="M19.2041 24.189L31.6406 16.9323L19.2041 9.67554V24.189Z" fill="white"/>
</g>
<defs>
<clipPath id="clip0_1_6558">
<rect width="48" height="34" fill="white"/>
</clipPath>
</defs>
</svg>
